<svg xmlns="http://www.w3.org/2000/svg" xmlns:xlink="http://www.w3.org/1999/xlink" viewBox="0,0,256,256" width="208px" height="208px" fill-rule="nonzero"><g fill="#008f00" fill-rule="nonzero" stroke="none" stroke-width="1" stroke-linecap="butt" stroke-linejoin="miter" stroke-miterlimit="10" stroke-dasharray="" stroke-dashoffset="0" font-family="none" font-weight="none" font-size="none" text-anchor="none" style="mix-blend-mode: normal"><g transform="scale(9.84615,9.84615)"><path d="M18.9375,2.90625c-0.20703,0.00391 -0.41406,0.04297 -0.625,0.09375c-1.60156,0.30078 -2.61328,1.80469 -2.3125,3.40625c0.80078,-0.69922 1.90625,-1.40625 3.40625,-1.40625c1.19922,0 1.99219,0.29297 2.59375,0.59375c0,-0.10156 0.00781,-0.17969 -0.09375,-0.28125c-0.26172,-1.39844 -1.51953,-2.44141 -2.96875,-2.40625zM7,3.03125c-1.38281,-0.03516 -2.64453,0.96875 -2.90625,2.28125c-0.10156,0.10156 -0.09375,0.17969 -0.09375,0.28125c0.60156,-0.30078 1.49219,-0.59375 2.59375,-0.59375c1.5,0 2.61328,0.69922 3.3125,1.5c0.30078,-1.60156 -0.71094,-3.10547 -2.3125,-3.40625c-0.19922,-0.05078 -0.39453,-0.05859 -0.59375,-0.0625zM6.59375,6c-2.5,0 -3.10156,1.38672 -3.5,2.6875c-0.69922,2.19922 -2.59375,7.40625 -2.59375,7.40625c0,0 0.10156,-0.09766 0.125,-0.125c-0.39453,0.75781 -0.625,1.62109 -0.625,2.53125c0,3.02734 2.47266,5.5 5.5,5.5c3.02734,0 5.5,-2.47266 5.5,-5.5c0,-2.83594 -2.17187,-5.1875 -4.9375,-5.46875c3.23438,0.17188 4.27734,1.73828 4.9375,2.96875c0,1.10156 0.89844,2 2,2c1.10156,0 2,-0.89844 2,-2c0.66016,-1.23047 1.70313,-2.79687 4.9375,-2.96875c-2.76562,0.28125 -4.9375,2.63281 -4.9375,5.46875c0,3.02734 2.47266,5.5 5.5,5.5c3.02734,0 5.5,-2.47266 5.5,-5.5c0,-0.91016 -0.23047,-1.77344 -0.625,-2.53125c0.02344,0.02734 0.125,0.125 0.125,0.125c0,0 -1.89453,-5.20703 -2.59375,-7.40625c-0.39844,-1.19922 -1,-2.6875 -3.5,-2.6875c-2.69922,0 -3.69922,3.28906 -4.5,2.6875c-0.5,-0.5 -1.20703,-0.6875 -1.90625,-0.6875c-0.69922,0 -1.40625,0.1875 -1.90625,0.6875c-0.80078,0.60156 -1.80078,-2.6875 -4.5,-2.6875zM5.5,15c1.94531,0 3.5,1.55469 3.5,3.5c0,1.94531 -1.55469,3.5 -3.5,3.5c-1.94531,0 -3.5,-1.55469 -3.5,-3.5c0,-1.94531 1.55469,-3.5 3.5,-3.5zM20.5,15c1.94531,0 3.5,1.55469 3.5,3.5c0,1.94531 -1.55469,3.5 -3.5,3.5c-1.94531,0 -3.5,-1.55469 -3.5,-3.5c0,-1.94531 1.55469,-3.5 3.5,-3.5z"></path></g></g></svg>