<svg width="218" height="54" viewBox="0 0 218 54" fill="none" xmlns="http://www.w3.org/2000/svg">
<path d="M16.08 42C15.04 42 14.52 41.47 14.52 40.41V27.06L1.08 5.82C0.54 4.96 0.71 4.23 1.59 3.63C2.49 3.07 3.22 3.24 3.78 4.14L16.08 23.67L28.59 4.11C28.87 3.69 29.19 3.44 29.55 3.36C29.91 3.28 30.31 3.38 30.75 3.66C31.65 4.2 31.81 4.92 31.23 5.82L17.67 27.06V40.41C17.67 41.47 17.14 42 16.08 42ZM60.0159 13.65C61.0759 13.65 61.6059 14.17 61.6059 15.21V40.41C61.6059 41.47 61.0759 42 60.0159 42C58.9759 42 58.4559 41.47 58.4559 40.41V37.56C56.5559 40.52 53.1159 42 48.1359 42H46.4559C42.7159 42 39.9759 41.13 38.2359 39.39C36.5159 37.65 35.6559 34.91 35.6559 31.17V15.21C35.6559 14.17 36.1759 13.65 37.2159 13.65C38.2759 13.65 38.8059 14.17 38.8059 15.21V31.17C38.8059 34.03 39.3659 36.03 40.4859 37.17C41.6259 38.29 43.6159 38.85 46.4559 38.85H48.1359C51.2359 38.85 53.6759 38.35 55.4559 37.35C57.2359 36.35 58.2359 34.82 58.4559 32.76V15.21C58.4559 14.17 58.9759 13.65 60.0159 13.65ZM74.407 42C73.347 42 72.817 41.47 72.817 40.41V1.95C72.817 0.909998 73.347 0.389997 74.407 0.389997C75.447 0.389997 75.967 0.909998 75.967 1.95V26.88L91.207 13.8C91.967 13.12 92.697 13.17 93.397 13.95C94.077 14.73 94.027 15.47 93.247 16.17L82.207 25.68L94.207 39.3C94.907 40.08 94.857 40.82 94.057 41.52C93.297 42.2 92.567 42.15 91.867 41.37L79.777 27.75L75.967 31.02V40.41C75.967 41.47 75.447 42 74.407 42ZM99.368 11.79C98.748 11.79 98.308 11.57 98.048 11.13C97.808 10.69 97.818 10.17 98.078 9.57L100.898 3.51L103.598 4.68L100.778 10.74C100.618 11.1 100.428 11.37 100.208 11.55C100.008 11.71 99.728 11.79 99.368 11.79ZM100.898 5.67C99.738 5.67 99.158 5.08 99.158 3.9V2.76C99.158 1.62 99.738 1.05 100.898 1.05H102.008C103.148 1.05 103.718 1.62 103.718 2.76V3.9C103.718 5.08 103.148 5.67 102.008 5.67H100.898ZM122.145 42C119.025 42 116.735 41.28 115.275 39.84C113.835 38.38 113.115 36.09 113.115 32.97C113.115 29.85 113.845 27.56 115.305 26.1C116.765 24.64 119.045 23.91 122.145 23.91H135.795C135.755 21.27 135.155 19.43 133.995 18.39C132.855 17.33 130.905 16.8 128.145 16.8H124.665C122.125 16.8 120.265 17.07 119.085 17.61C117.905 18.15 117.175 19.07 116.895 20.37C116.755 20.87 116.565 21.24 116.325 21.48C116.105 21.7 115.745 21.81 115.245 21.81C114.725 21.81 114.315 21.67 114.015 21.39C113.735 21.09 113.635 20.69 113.715 20.19C113.975 17.91 115.005 16.25 116.805 15.21C118.625 14.17 121.245 13.65 124.665 13.65H128.145C131.885 13.65 134.615 14.52 136.335 16.26C138.075 17.98 138.945 20.71 138.945 24.45V40.41C138.945 41.47 138.425 42 137.385 42C136.325 42 135.795 41.47 135.795 40.41V37.44C133.875 40.48 130.445 42 125.505 42H122.145ZM122.145 38.85H125.505C127.445 38.85 129.145 38.64 130.605 38.22C132.085 37.78 133.275 37.08 134.175 36.12C135.075 35.16 135.615 33.88 135.795 32.28V27.06H122.145C119.925 27.06 118.385 27.49 117.525 28.35C116.685 29.19 116.265 30.73 116.265 32.97C116.265 35.19 116.685 36.73 117.525 37.59C118.385 38.43 119.925 38.85 122.145 38.85ZM151.223 54C150.163 54 149.633 53.47 149.633 52.41V15.21C149.633 14.17 150.163 13.65 151.223 13.65C152.263 13.65 152.783 14.17 152.783 15.21V17.88C153.683 16.48 154.973 15.43 156.653 14.73C158.333 14.01 160.483 13.65 163.103 13.65H165.383C169.123 13.65 171.853 14.52 173.573 16.26C175.313 17.98 176.183 20.71 176.183 24.45V31.17C176.183 34.91 175.313 37.65 173.573 39.39C171.853 41.13 169.123 42 165.383 42H152.783V52.41C152.783 53.47 152.263 54 151.223 54ZM152.783 38.85H165.383C168.243 38.85 170.233 38.29 171.353 37.17C172.473 36.03 173.033 34.03 173.033 31.17V24.45C173.033 21.59 172.473 19.6 171.353 18.48C170.233 17.36 168.243 16.8 165.383 16.8H163.103C159.903 16.8 157.443 17.3 155.723 18.3C154.023 19.3 153.043 20.84 152.783 22.92V38.85ZM188.196 54C187.136 54 186.606 53.47 186.606 52.41V15.21C186.606 14.17 187.136 13.65 188.196 13.65C189.236 13.65 189.756 14.17 189.756 15.21V17.88C190.656 16.48 191.946 15.43 193.626 14.73C195.306 14.01 197.456 13.65 200.076 13.65H202.356C206.096 13.65 208.826 14.52 210.546 16.26C212.286 17.98 213.156 20.71 213.156 24.45V31.17C213.156 34.91 212.286 37.65 210.546 39.39C208.826 41.13 206.096 42 202.356 42H189.756V52.41C189.756 53.47 189.236 54 188.196 54ZM189.756 38.85H202.356C205.216 38.85 207.206 38.29 208.326 37.17C209.446 36.03 210.006 34.03 210.006 31.17V24.45C210.006 21.59 209.446 19.6 208.326 18.48C207.206 17.36 205.216 16.8 202.356 16.8H200.076C196.876 16.8 194.416 17.3 192.696 18.3C190.996 19.3 190.016 20.84 189.756 22.92V38.85Z" fill="black"/>
<path d="M16.08 42C15.04 42 14.52 41.47 14.52 40.41V27.06L1.08 5.82C0.54 4.96 0.71 4.23 1.59 3.63C2.49 3.07 3.22 3.24 3.78 4.14L16.08 23.67L28.59 4.11C28.87 3.69 29.19 3.44 29.55 3.36C29.91 3.28 30.31 3.38 30.75 3.66C31.65 4.2 31.81 4.92 31.23 5.82L17.67 27.06V40.41C17.67 41.47 17.14 42 16.08 42ZM60.0159 13.65C61.0759 13.65 61.6059 14.17 61.6059 15.21V40.41C61.6059 41.47 61.0759 42 60.0159 42C58.9759 42 58.4559 41.47 58.4559 40.41V37.56C56.5559 40.52 53.1159 42 48.1359 42H46.4559C42.7159 42 39.9759 41.13 38.2359 39.39C36.5159 37.65 35.6559 34.91 35.6559 31.17V15.21C35.6559 14.17 36.1759 13.65 37.2159 13.65C38.2759 13.65 38.8059 14.17 38.8059 15.21V31.17C38.8059 34.03 39.3659 36.03 40.4859 37.17C41.6259 38.29 43.6159 38.85 46.4559 38.85H48.1359C51.2359 38.85 53.6759 38.35 55.4559 37.35C57.2359 36.35 58.2359 34.82 58.4559 32.76V15.21C58.4559 14.17 58.9759 13.65 60.0159 13.65ZM74.407 42C73.347 42 72.817 41.47 72.817 40.41V1.95C72.817 0.909998 73.347 0.389997 74.407 0.389997C75.447 0.389997 75.967 0.909998 75.967 1.95V26.88L91.207 13.8C91.967 13.12 92.697 13.17 93.397 13.95C94.077 14.73 94.027 15.47 93.247 16.17L82.207 25.68L94.207 39.3C94.907 40.08 94.857 40.82 94.057 41.52C93.297 42.2 92.567 42.15 91.867 41.37L79.777 27.75L75.967 31.02V40.41C75.967 41.47 75.447 42 74.407 42ZM99.368 11.79C98.748 11.79 98.308 11.57 98.048 11.13C97.808 10.69 97.818 10.17 98.078 9.57L100.898 3.51L103.598 4.68L100.778 10.74C100.618 11.1 100.428 11.37 100.208 11.55C100.008 11.71 99.728 11.79 99.368 11.79ZM100.898 5.67C99.738 5.67 99.158 5.08 99.158 3.9V2.76C99.158 1.62 99.738 1.05 100.898 1.05H102.008C103.148 1.05 103.718 1.62 103.718 2.76V3.9C103.718 5.08 103.148 5.67 102.008 5.67H100.898ZM122.145 42C119.025 42 116.735 41.28 115.275 39.84C113.835 38.38 113.115 36.09 113.115 32.97C113.115 29.85 113.845 27.56 115.305 26.1C116.765 24.64 119.045 23.91 122.145 23.91H135.795C135.755 21.27 135.155 19.43 133.995 18.39C132.855 17.33 130.905 16.8 128.145 16.8H124.665C122.125 16.8 120.265 17.07 119.085 17.61C117.905 18.15 117.175 19.07 116.895 20.37C116.755 20.87 116.565 21.24 116.325 21.48C116.105 21.7 115.745 21.81 115.245 21.81C114.725 21.81 114.315 21.67 114.015 21.39C113.735 21.09 113.635 20.69 113.715 20.19C113.975 17.91 115.005 16.25 116.805 15.21C118.625 14.17 121.245 13.65 124.665 13.65H128.145C131.885 13.65 134.615 14.52 136.335 16.26C138.075 17.98 138.945 20.71 138.945 24.45V40.41C138.945 41.47 138.425 42 137.385 42C136.325 42 135.795 41.47 135.795 40.41V37.44C133.875 40.48 130.445 42 125.505 42H122.145ZM122.145 38.85H125.505C127.445 38.85 129.145 38.64 130.605 38.22C132.085 37.78 133.275 37.08 134.175 36.12C135.075 35.16 135.615 33.88 135.795 32.28V27.06H122.145C119.925 27.06 118.385 27.49 117.525 28.35C116.685 29.19 116.265 30.73 116.265 32.97C116.265 35.19 116.685 36.73 117.525 37.59C118.385 38.43 119.925 38.85 122.145 38.85ZM151.223 54C150.163 54 149.633 53.47 149.633 52.41V15.21C149.633 14.17 150.163 13.65 151.223 13.65C152.263 13.65 152.783 14.17 152.783 15.21V17.88C153.683 16.48 154.973 15.43 156.653 14.73C158.333 14.01 160.483 13.65 163.103 13.65H165.383C169.123 13.65 171.853 14.52 173.573 16.26C175.313 17.98 176.183 20.71 176.183 24.45V31.17C176.183 34.91 175.313 37.65 173.573 39.39C171.853 41.13 169.123 42 165.383 42H152.783V52.41C152.783 53.47 152.263 54 151.223 54ZM152.783 38.85H165.383C168.243 38.85 170.233 38.29 171.353 37.17C172.473 36.03 173.033 34.03 173.033 31.17V24.45C173.033 21.59 172.473 19.6 171.353 18.48C170.233 17.36 168.243 16.8 165.383 16.8H163.103C159.903 16.8 157.443 17.3 155.723 18.3C154.023 19.3 153.043 20.84 152.783 22.92V38.85ZM188.196 54C187.136 54 186.606 53.47 186.606 52.41V15.21C186.606 14.17 187.136 13.65 188.196 13.65C189.236 13.65 189.756 14.17 189.756 15.21V17.88C190.656 16.48 191.946 15.43 193.626 14.73C195.306 14.01 197.456 13.65 200.076 13.65H202.356C206.096 13.65 208.826 14.52 210.546 16.26C212.286 17.98 213.156 20.71 213.156 24.45V31.17C213.156 34.91 212.286 37.65 210.546 39.39C208.826 41.13 206.096 42 202.356 42H189.756V52.41C189.756 53.47 189.236 54 188.196 54ZM189.756 38.85H202.356C205.216 38.85 207.206 38.29 208.326 37.17C209.446 36.03 210.006 34.03 210.006 31.17V24.45C210.006 21.59 209.446 19.6 208.326 18.48C207.206 17.36 205.216 16.8 202.356 16.8H200.076C196.876 16.8 194.416 17.3 192.696 18.3C190.996 19.3 190.016 20.84 189.756 22.92V38.85Z" fill="black"/>
<line x1="210" y1="43.5" x2="11" y2="43.5" stroke="black"/>
</svg>
