<svg width="89" height="109" viewBox="0 0 89 109" fill="none" xmlns="http://www.w3.org/2000/svg">
<path d="M87.1554 21.5C87.1554 104.3 56.9887 102.833 41.6554 102" stroke="black" stroke-width="3"/>
<path d="M39.6554 91.5C2.1554 142 -21.8446 58 39.6554 2C30.4554 22.8 35.8221 36.6667 39.6554 41C52.1554 41 69.6554 51.1 39.6554 91.5Z" stroke="black" stroke-width="3"/>
<path d="M87.1554 22C85.1554 30.5 89.6554 40.5 71.1554 49.5C62.1554 52.5 57.6554 52 56.1554 54.5" stroke="black" stroke-width="3"/>
<path d="M41.6554 102C34.4554 102 31.9887 101.333 31.6554 101" stroke="black" stroke-width="3"/>
<path d="M34.1554 20.5001C43.3554 15.3001 54.9887 18.3334 59.6554 20.5001C72.6554 17 76.1554 18.0001 77.6554 20.5001C80.3039 24.9143 81.6554 26.0001 82.1554 33.0001C82.474 37.4609 82.3221 41.6668 81.6554 42.0001" stroke="#820606" stroke-width="3"/>
<path d="M37.6554 6.99984C57.1554 2.99984 76.9054 8.49997 78.1554 9.99974C80.6554 11.5 87.1554 17.5 87.1554 21.5" stroke="black" stroke-width="3"/>
<path d="M58.1554 17C53.7554 16.2 51.3221 13.3333 50.6554 12C54.2554 12.8 57.1554 15.6667 58.1554 17Z" stroke="#076607" stroke-width="3"/>
<path d="M59.6554 20.5C57.6554 14.5 61.1554 11.5 63.1554 10" stroke="#26160D" stroke-width="3"/>
</svg>
