<svg width="472" height="109" viewBox="0 0 472 109" fill="none" xmlns="http://www.w3.org/2000/svg">
<path d="M87.1554 21.5C87.1554 104.3 56.9887 102.833 41.6554 102" stroke="black" stroke-width="3"/>
<path d="M39.6554 91.5C2.1554 142 -21.8446 58 39.6554 2C30.4554 22.8 35.8221 36.6667 39.6554 41C52.1554 41 69.6554 51.1 39.6554 91.5Z" stroke="black" stroke-width="3"/>
<path d="M87.1554 22C85.1554 30.5 89.6554 40.5 71.1554 49.5C62.1554 52.5 57.6554 52 56.1554 54.5" stroke="black" stroke-width="3"/>
<path d="M41.6554 102C34.4554 102 31.9887 101.333 31.6554 101" stroke="black" stroke-width="3"/>
<path d="M34.1554 20.5001C43.3554 15.3001 54.9887 18.3334 59.6554 20.5001C72.6554 17 76.1554 18.0001 77.6554 20.5001C80.3039 24.9143 81.6554 26.0001 82.1554 33.0001C82.474 37.4609 82.3221 41.6668 81.6554 42.0001" stroke="#820606" stroke-width="3"/>
<path d="M37.6554 7.00009C57.1554 3.00009 76.9054 8.50022 78.1554 9.99998C80.6554 11.5002 87.1554 17.5002 87.1554 21.5002" stroke="black" stroke-width="3"/>
<path d="M58.1554 17C53.7554 16.2 51.3221 13.3333 50.6554 12C54.2554 12.8 57.1554 15.6667 58.1554 17Z" stroke="#076607" stroke-width="3"/>
<path d="M59.6554 20.5C57.6554 14.5 61.1554 11.5 63.1554 10" stroke="#26160D" stroke-width="3"/>
<path d="M133.8 84C132.067 84 131.2 83.1167 131.2 81.35V59.1L108.8 23.7C107.9 22.2667 108.183 21.05 109.65 20.05C111.15 19.1167 112.367 19.4 113.3 20.9L133.8 53.45L154.65 20.85C155.117 20.15 155.65 19.7333 156.25 19.6C156.85 19.4667 157.517 19.6333 158.25 20.1C159.75 21 160.017 22.2 159.05 23.7L136.45 59.1V81.35C136.45 83.1167 135.567 84 133.8 84ZM207.027 36.75C208.793 36.75 209.677 37.6167 209.677 39.35V81.35C209.677 83.1167 208.793 84 207.027 84C205.293 84 204.427 83.1167 204.427 81.35V76.6C201.26 81.5333 195.527 84 187.227 84H184.427C178.193 84 173.627 82.55 170.727 79.65C167.86 76.75 166.427 72.1833 166.427 65.95V39.35C166.427 37.6167 167.293 36.75 169.027 36.75C170.793 36.75 171.677 37.6167 171.677 39.35V65.95C171.677 70.7167 172.61 74.05 174.477 75.95C176.377 77.8167 179.693 78.75 184.427 78.75H187.227C192.393 78.75 196.46 77.9167 199.427 76.25C202.393 74.5833 204.06 72.0333 204.427 68.6V39.35C204.427 37.6167 205.293 36.75 207.027 36.75ZM231.012 84C229.245 84 228.362 83.1167 228.362 81.35V17.25C228.362 15.5167 229.245 14.65 231.012 14.65C232.745 14.65 233.612 15.5167 233.612 17.25V58.8L259.012 37C260.278 35.8667 261.495 35.95 262.662 37.25C263.795 38.55 263.712 39.7833 262.412 40.95L244.012 56.8L264.012 79.5C265.178 80.8 265.095 82.0333 263.762 83.2C262.495 84.3333 261.278 84.25 260.112 82.95L239.962 60.25L233.612 65.7V81.35C233.612 83.1167 232.745 84 231.012 84ZM272.613 33.65C271.58 33.65 270.847 33.2833 270.413 32.55C270.013 31.8167 270.03 30.95 270.463 29.95L275.163 19.85L279.663 21.8L274.963 31.9C274.697 32.5 274.38 32.95 274.013 33.25C273.68 33.5167 273.213 33.65 272.613 33.65ZM275.163 23.45C273.23 23.45 272.263 22.4667 272.263 20.5V18.6C272.263 16.7 273.23 15.75 275.163 15.75H277.013C278.913 15.75 279.863 16.7 279.863 18.6V20.5C279.863 22.4667 278.913 23.45 277.013 23.45H275.163ZM310.576 84C305.376 84 301.559 82.8 299.126 80.4C296.726 77.9667 295.526 74.15 295.526 68.95C295.526 63.75 296.742 59.9333 299.176 57.5C301.609 55.0667 305.409 53.85 310.576 53.85H333.326C333.259 49.45 332.259 46.3833 330.326 44.65C328.426 42.8833 325.176 42 320.576 42H314.776C310.542 42 307.442 42.45 305.476 43.35C303.509 44.25 302.292 45.7833 301.826 47.95C301.592 48.7833 301.276 49.4 300.876 49.8C300.509 50.1667 299.909 50.35 299.076 50.35C298.209 50.35 297.526 50.1167 297.026 49.65C296.559 49.15 296.392 48.4833 296.526 47.65C296.959 43.85 298.676 41.0833 301.676 39.35C304.709 37.6167 309.076 36.75 314.776 36.75H320.576C326.809 36.75 331.359 38.2 334.226 41.1C337.126 43.9667 338.576 48.5167 338.576 54.75V81.35C338.576 83.1167 337.709 84 335.976 84C334.209 84 333.326 83.1167 333.326 81.35V76.4C330.126 81.4667 324.409 84 316.176 84H310.576ZM310.576 78.75H316.176C319.409 78.75 322.242 78.4 324.676 77.7C327.142 76.9667 329.126 75.8 330.626 74.2C332.126 72.6 333.026 70.4667 333.326 67.8V59.1H310.576C306.876 59.1 304.309 59.8167 302.876 61.25C301.476 62.65 300.776 65.2167 300.776 68.95C300.776 72.65 301.476 75.2167 302.876 76.65C304.309 78.05 306.876 78.75 310.576 78.75ZM359.039 104C357.272 104 356.389 103.117 356.389 101.35V39.35C356.389 37.6167 357.272 36.75 359.039 36.75C360.772 36.75 361.639 37.6167 361.639 39.35V43.8C363.139 41.4667 365.289 39.7167 368.089 38.55C370.889 37.35 374.472 36.75 378.839 36.75H382.639C388.872 36.75 393.422 38.2 396.289 41.1C399.189 43.9667 400.639 48.5167 400.639 54.75V65.95C400.639 72.1833 399.189 76.75 396.289 79.65C393.422 82.55 388.872 84 382.639 84H361.639V101.35C361.639 103.117 360.772 104 359.039 104ZM361.639 78.75H382.639C387.406 78.75 390.722 77.8167 392.589 75.95C394.456 74.05 395.389 70.7167 395.389 65.95V54.75C395.389 49.9833 394.456 46.6667 392.589 44.8C390.722 42.9333 387.406 42 382.639 42H378.839C373.506 42 369.406 42.8333 366.539 44.5C363.706 46.1667 362.072 48.7333 361.639 52.2V78.75ZM420.66 104C418.893 104 418.01 103.117 418.01 101.35V39.35C418.01 37.6167 418.893 36.75 420.66 36.75C422.393 36.75 423.26 37.6167 423.26 39.35V43.8C424.76 41.4667 426.91 39.7167 429.71 38.55C432.51 37.35 436.093 36.75 440.46 36.75H444.26C450.493 36.75 455.043 38.2 457.91 41.1C460.81 43.9667 462.26 48.5167 462.26 54.75V65.95C462.26 72.1833 460.81 76.75 457.91 79.65C455.043 82.55 450.493 84 444.26 84H423.26V101.35C423.26 103.117 422.393 104 420.66 104ZM423.26 78.75H444.26C449.027 78.75 452.343 77.8167 454.21 75.95C456.077 74.05 457.01 70.7167 457.01 65.95V54.75C457.01 49.9833 456.077 46.6667 454.21 44.8C452.343 42.9333 449.027 42 444.26 42H440.46C435.127 42 431.027 42.8333 428.16 44.5C425.327 46.1667 423.693 48.7333 423.26 52.2V78.75Z" fill="black"/>
<line x1="472.001" y1="86.5" x2="74.9994" y2="86.5" stroke="black" stroke-width="2"/>
</svg>
