<svg width="231" height="161" viewBox="0 0 231 161" fill="none" xmlns="http://www.w3.org/2000/svg">
<path d="M87.1554 21.5C87.1554 104.3 56.9887 102.833 41.6554 102" stroke="black" stroke-width="3"/>
<path d="M39.6554 91.5C2.1554 142 -21.8446 58 39.6554 2C30.4554 22.8 35.8221 36.6667 39.6554 41C52.1554 41 69.6554 51.1 39.6554 91.5Z" stroke="black" stroke-width="3"/>
<path d="M87.1554 22C85.1554 30.5 89.6554 40.5 71.1554 49.5C62.1554 52.5 57.6554 52 56.1554 54.5" stroke="black" stroke-width="3"/>
<path d="M41.6554 102C34.4554 102 31.9887 101.333 31.6554 101" stroke="black" stroke-width="3"/>
<path d="M34.1554 20.5001C43.3554 15.3001 54.9887 18.3334 59.6554 20.5001C72.6554 17 76.1554 18.0001 77.6554 20.5001C80.3039 24.9143 81.6554 26.0001 82.1554 33.0001C82.474 37.4609 82.3221 41.6668 81.6554 42.0001" stroke="#820606" stroke-width="3"/>
<path d="M37.6554 6.99984C57.1554 2.99984 76.9054 8.49997 78.1554 9.99974C80.6554 11.5 87.1554 17.5 87.1554 21.5" stroke="black" stroke-width="3"/>
<path d="M58.1554 17C53.7554 16.2 51.3221 13.3333 50.6554 12C54.2554 12.8 57.1554 15.6667 58.1554 17Z" stroke="#076607" stroke-width="3"/>
<path d="M59.6554 20.5C57.6554 14.5 61.1554 11.5 63.1554 10" stroke="#26160D" stroke-width="3"/>
<path d="M113.08 55C112.04 55 111.52 54.47 111.52 53.41V40.06L98.08 18.82C97.54 17.96 97.71 17.23 98.59 16.63C99.49 16.07 100.22 16.24 100.78 17.14L113.08 36.67L125.59 17.11C125.87 16.69 126.19 16.44 126.55 16.36C126.91 16.28 127.31 16.38 127.75 16.66C128.65 17.2 128.81 17.92 128.23 18.82L114.67 40.06V53.41C114.67 54.47 114.14 55 113.08 55ZM157.016 26.65C158.076 26.65 158.606 27.17 158.606 28.21V53.41C158.606 54.47 158.076 55 157.016 55C155.976 55 155.456 54.47 155.456 53.41V50.56C153.556 53.52 150.116 55 145.136 55H143.456C139.716 55 136.976 54.13 135.236 52.39C133.516 50.65 132.656 47.91 132.656 44.17V28.21C132.656 27.17 133.176 26.65 134.216 26.65C135.276 26.65 135.806 27.17 135.806 28.21V44.17C135.806 47.03 136.366 49.03 137.486 50.17C138.626 51.29 140.616 51.85 143.456 51.85H145.136C148.236 51.85 150.676 51.35 152.456 50.35C154.236 49.35 155.236 47.82 155.456 45.76V28.21C155.456 27.17 155.976 26.65 157.016 26.65ZM171.407 55C170.347 55 169.817 54.47 169.817 53.41V14.95C169.817 13.91 170.347 13.39 171.407 13.39C172.447 13.39 172.967 13.91 172.967 14.95V39.88L188.207 26.8C188.967 26.12 189.697 26.17 190.397 26.95C191.077 27.73 191.027 28.47 190.247 29.17L179.207 38.68L191.207 52.3C191.907 53.08 191.857 53.82 191.057 54.52C190.297 55.2 189.567 55.15 188.867 54.37L176.777 40.75L172.967 44.02V53.41C172.967 54.47 172.447 55 171.407 55ZM196.368 24.79C195.748 24.79 195.308 24.57 195.048 24.13C194.808 23.69 194.818 23.17 195.078 22.57L197.898 16.51L200.598 17.68L197.778 23.74C197.618 24.1 197.428 24.37 197.208 24.55C197.008 24.71 196.728 24.79 196.368 24.79ZM197.898 18.67C196.738 18.67 196.158 18.08 196.158 16.9V15.76C196.158 14.62 196.738 14.05 197.898 14.05H199.008C200.148 14.05 200.718 14.62 200.718 15.76V16.9C200.718 18.08 200.148 18.67 199.008 18.67H197.898ZM111.04 90C107.92 90 105.63 89.28 104.17 87.84C102.73 86.38 102.01 84.09 102.01 80.97C102.01 77.85 102.74 75.56 104.2 74.1C105.66 72.64 107.94 71.91 111.04 71.91H124.69C124.65 69.27 124.05 67.43 122.89 66.39C121.75 65.33 119.8 64.8 117.04 64.8H113.56C111.02 64.8 109.16 65.07 107.98 65.61C106.8 66.15 106.07 67.07 105.79 68.37C105.65 68.87 105.46 69.24 105.22 69.48C105 69.7 104.64 69.81 104.14 69.81C103.62 69.81 103.21 69.67 102.91 69.39C102.63 69.09 102.53 68.69 102.61 68.19C102.87 65.91 103.9 64.25 105.7 63.21C107.52 62.17 110.14 61.65 113.56 61.65H117.04C120.78 61.65 123.51 62.52 125.23 64.26C126.97 65.98 127.84 68.71 127.84 72.45V88.41C127.84 89.47 127.32 90 126.28 90C125.22 90 124.69 89.47 124.69 88.41V85.44C122.77 88.48 119.34 90 114.4 90H111.04ZM111.04 86.85H114.4C116.34 86.85 118.04 86.64 119.5 86.22C120.98 85.78 122.17 85.08 123.07 84.12C123.97 83.16 124.51 81.88 124.69 80.28V75.06H111.04C108.82 75.06 107.28 75.49 106.42 76.35C105.58 77.19 105.16 78.73 105.16 80.97C105.16 83.19 105.58 84.73 106.42 85.59C107.28 86.43 108.82 86.85 111.04 86.85ZM140.118 102C139.058 102 138.528 101.47 138.528 100.41V63.21C138.528 62.17 139.058 61.65 140.118 61.65C141.158 61.65 141.678 62.17 141.678 63.21V65.88C142.578 64.48 143.868 63.43 145.548 62.73C147.228 62.01 149.378 61.65 151.998 61.65H154.278C158.018 61.65 160.748 62.52 162.468 64.26C164.208 65.98 165.078 68.71 165.078 72.45V79.17C165.078 82.91 164.208 85.65 162.468 87.39C160.748 89.13 158.018 90 154.278 90H141.678V100.41C141.678 101.47 141.158 102 140.118 102ZM141.678 86.85H154.278C157.138 86.85 159.128 86.29 160.248 85.17C161.368 84.03 161.928 82.03 161.928 79.17V72.45C161.928 69.59 161.368 67.6 160.248 66.48C159.128 65.36 157.138 64.8 154.278 64.8H151.998C148.798 64.8 146.338 65.3 144.618 66.3C142.918 67.3 141.938 68.84 141.678 70.92V86.85ZM177.091 102C176.031 102 175.501 101.47 175.501 100.41V63.21C175.501 62.17 176.031 61.65 177.091 61.65C178.131 61.65 178.651 62.17 178.651 63.21V65.88C179.551 64.48 180.841 63.43 182.521 62.73C184.201 62.01 186.351 61.65 188.971 61.65H191.251C194.991 61.65 197.721 62.52 199.441 64.26C201.181 65.98 202.051 68.71 202.051 72.45V79.17C202.051 82.91 201.181 85.65 199.441 87.39C197.721 89.13 194.991 90 191.251 90H178.651V100.41C178.651 101.47 178.131 102 177.091 102ZM178.651 86.85H191.251C194.111 86.85 196.101 86.29 197.221 85.17C198.341 84.03 198.901 82.03 198.901 79.17V72.45C198.901 69.59 198.341 67.6 197.221 66.48C196.101 65.36 194.111 64.8 191.251 64.8H188.971C185.771 64.8 183.311 65.3 181.591 66.3C179.891 67.3 178.911 68.84 178.651 70.92V86.85Z" fill="black"/>
<line x1="200" y1="92.5" x2="70.0002" y2="92.5076" stroke="black"/>
<line x1="200.003" y1="56.0105" x2="102.998" y2="56.0105" stroke="black"/>
</svg>
