<svg width="298" height="55" viewBox="0 0 298 55" fill="none" xmlns="http://www.w3.org/2000/svg">
<g filter="url(#filter0_d_3_17)">
<path d="M65.18 38C64.34 38 63.92 37.58 63.92 36.74V28.08L54.9 13.78C54.4733 13.0733 54.6067 12.4867 55.3 12.02C56.02 11.5667 56.6 11.7 57.04 12.42L65.18 25.38L73.54 12.4C73.7533 12.0667 74.0067 11.8667 74.3 11.8C74.6067 11.7333 74.9267 11.82 75.26 12.06C75.9933 12.5 76.12 13.0733 75.64 13.78L66.44 28.08V36.74C66.44 37.58 66.02 38 65.18 38ZM95.3663 18.64C96.2063 18.64 96.6263 19.06 96.6263 19.9V36.74C96.6263 37.58 96.2063 38 95.3663 38C94.5263 38 94.1063 37.58 94.1063 36.74V35.24C92.7996 37.08 90.5796 38 87.4463 38H86.3263C83.7796 38 81.9063 37.4 80.7063 36.2C79.5063 35 78.9063 33.1267 78.9063 30.58V19.9C78.9063 19.06 79.3263 18.64 80.1663 18.64C81.0063 18.64 81.4263 19.06 81.4263 19.9V30.58C81.4263 32.42 81.7796 33.7 82.4863 34.42C83.2063 35.1267 84.4863 35.48 86.3263 35.48H87.4463C89.3529 35.48 90.8996 35.2 92.0863 34.64C93.2863 34.0667 93.9596 33.1933 94.1063 32.02V19.9C94.1063 19.06 94.5263 18.64 95.3663 18.64ZM105.663 38C104.823 38 104.403 37.58 104.403 36.74V11.38C104.403 10.54 104.823 10.12 105.663 10.12C106.503 10.12 106.923 10.54 106.923 11.38V27.46L116.863 18.92C117.49 18.3733 118.077 18.4133 118.623 19.04C119.183 19.6667 119.143 20.26 118.503 20.82L111.163 27.14L118.823 35.84C119.383 36.48 119.35 37.0733 118.723 37.62C118.097 38.1667 117.503 38.1267 116.943 37.5L109.243 28.8L106.923 30.78V36.74C106.923 37.58 106.503 38 105.663 38ZM129.755 38C127.635 38 126.068 37.4933 125.055 36.48C124.041 35.4667 123.535 33.9 123.535 31.78C123.535 29.6467 124.041 28.0733 125.055 27.06C126.068 26.0467 127.635 25.54 129.755 25.54H138.655C138.601 23.9 138.208 22.76 137.475 22.12C136.755 21.48 135.515 21.16 133.755 21.16H131.435C129.861 21.16 128.701 21.3133 127.955 21.62C127.221 21.9133 126.748 22.4267 126.535 23.16C126.401 23.56 126.235 23.8533 126.035 24.04C125.848 24.2133 125.561 24.3 125.175 24.3C124.761 24.3 124.435 24.1867 124.195 23.96C123.968 23.72 123.888 23.4 123.955 23C124.208 21.48 124.948 20.3733 126.175 19.68C127.401 18.9867 129.155 18.64 131.435 18.64H133.755C136.315 18.64 138.188 19.24 139.375 20.44C140.575 21.6267 141.175 23.5 141.175 26.06V36.74C141.175 37.58 140.755 38 139.915 38C139.075 38 138.655 37.58 138.655 36.74V35.1C137.335 37.0333 135.115 38 131.995 38H129.755ZM129.755 35.48H131.995C133.195 35.48 134.261 35.3533 135.195 35.1C136.141 34.8467 136.915 34.4267 137.515 33.84C138.128 33.2533 138.508 32.46 138.655 31.46V28.06H129.755C128.328 28.06 127.355 28.32 126.835 28.84C126.315 29.36 126.055 30.34 126.055 31.78C126.055 33.2067 126.315 34.18 126.835 34.7C127.355 35.22 128.328 35.48 129.755 35.48ZM149.804 38C148.964 38 148.544 37.58 148.544 36.74V13.04C148.544 12.2 148.964 11.78 149.804 11.78C150.644 11.78 151.064 12.2 151.064 13.04V35.48H162.864C163.704 35.48 164.124 35.9 164.124 36.74C164.124 37.58 163.704 38 162.864 38H149.804ZM169.871 15.12C168.831 15.12 168.311 14.5933 168.311 13.54V12.54C168.311 11.5133 168.831 11 169.871 11H170.851C171.851 11 172.351 11.5133 172.351 12.54V13.54C172.351 14.5933 171.851 15.12 170.851 15.12H169.871ZM170.351 38C169.511 38 169.091 37.58 169.091 36.74V19.9C169.091 19.06 169.511 18.64 170.351 18.64C171.191 18.64 171.611 19.06 171.611 19.9V36.74C171.611 37.58 171.191 38 170.351 38ZM180.624 38C179.784 38 179.364 37.58 179.364 36.74V11.38C179.364 10.54 179.784 10.12 180.624 10.12C181.464 10.12 181.884 10.54 181.884 11.38V27.46L191.824 18.92C192.451 18.3733 193.038 18.4133 193.584 19.04C194.144 19.6667 194.104 20.26 193.464 20.82L186.124 27.14L193.784 35.84C194.344 36.48 194.311 37.0733 193.684 37.62C193.058 38.1667 192.464 38.1267 191.904 37.5L184.204 28.8L181.884 30.78V36.74C181.884 37.58 181.464 38 180.624 38ZM199.954 29.32V30.62C199.954 32.4467 200.308 33.7133 201.014 34.42C201.734 35.1267 203.014 35.48 204.854 35.48H208.134C209.721 35.48 210.874 35.2933 211.594 34.92C212.328 34.5467 212.774 33.9 212.934 32.98C213.028 32.58 213.174 32.28 213.374 32.08C213.574 31.88 213.874 31.78 214.274 31.78C214.688 31.78 215.001 31.8933 215.214 32.12C215.441 32.3333 215.521 32.6533 215.454 33.08C215.241 34.7467 214.528 35.9867 213.314 36.8C212.114 37.6 210.388 38 208.134 38H204.854C202.308 38 200.434 37.4 199.234 36.2C198.034 35 197.434 33.14 197.434 30.62V26.06C197.434 23.4733 198.034 21.5867 199.234 20.4C200.434 19.2 202.308 18.6133 204.854 18.64H208.134C210.694 18.64 212.568 19.24 213.754 20.44C214.954 21.6267 215.554 23.5 215.554 26.06V28.06C215.554 28.9 215.134 29.32 214.294 29.32H199.954ZM204.854 21.16C203.014 21.1333 201.734 21.4733 201.014 22.18C200.308 22.8867 199.954 24.18 199.954 26.06V26.8H213.034V26.06C213.034 24.2067 212.681 22.9267 211.974 22.22C211.268 21.5133 209.988 21.16 208.134 21.16H204.854ZM220.475 37.88C219.702 37.5467 219.468 36.9933 219.775 36.22L229.555 12.76C229.835 12.1067 230.308 11.78 230.975 11.78H231.075C231.728 11.7933 232.182 12.12 232.435 12.76L242.275 36.22C242.608 36.9933 242.382 37.5467 241.595 37.88C240.822 38.1867 240.275 37.96 239.955 37.2L237.475 31.26H224.575L222.115 37.2C221.808 37.9733 221.262 38.2 220.475 37.88ZM225.595 28.74H236.415L230.975 15.76L225.595 28.74ZM248.398 46C247.558 46 247.138 45.58 247.138 44.74V19.9C247.138 19.06 247.558 18.64 248.398 18.64C249.238 18.64 249.658 19.06 249.658 19.9V21.24C250.298 20.3867 251.164 19.74 252.258 19.3C253.364 18.86 254.718 18.64 256.318 18.64H257.838C260.398 18.64 262.271 19.24 263.458 20.44C264.658 21.6267 265.258 23.5 265.258 26.06V30.58C265.258 33.1267 264.658 35 263.458 36.2C262.271 37.4 260.398 38 257.838 38H249.658V44.74C249.658 45.58 249.238 46 248.398 46ZM249.658 35.48H257.838C259.691 35.48 260.971 35.1267 261.678 34.42C262.384 33.7 262.738 32.42 262.738 30.58V26.06C262.738 24.2067 262.384 22.9267 261.678 22.22C260.971 21.5133 259.691 21.16 257.838 21.16H256.318C254.344 21.16 252.771 21.4467 251.598 22.02C250.438 22.5933 249.791 23.4867 249.658 24.7V35.48ZM273.593 46C272.753 46 272.333 45.58 272.333 44.74V19.9C272.333 19.06 272.753 18.64 273.593 18.64C274.433 18.64 274.853 19.06 274.853 19.9V21.24C275.493 20.3867 276.36 19.74 277.453 19.3C278.56 18.86 279.913 18.64 281.513 18.64H283.033C285.593 18.64 287.466 19.24 288.653 20.44C289.853 21.6267 290.453 23.5 290.453 26.06V30.58C290.453 33.1267 289.853 35 288.653 36.2C287.466 37.4 285.593 38 283.033 38H274.853V44.74C274.853 45.58 274.433 46 273.593 46ZM274.853 35.48H283.033C284.886 35.48 286.166 35.1267 286.873 34.42C287.58 33.7 287.933 32.42 287.933 30.58V26.06C287.933 24.2067 287.58 22.9267 286.873 22.22C286.166 21.5133 284.886 21.16 283.033 21.16H281.513C279.54 21.16 277.966 21.4467 276.793 22.02C275.633 22.5933 274.986 23.4867 274.853 24.7V35.48Z" fill="#0E930E"/>
<path d="M38.2332 5.2536C37.8589 5.26067 37.4847 5.33128 37.1033 5.42308C34.2082 5.96679 32.3793 8.6854 32.9231 11.5805C34.3706 10.3166 36.369 9.03846 39.0805 9.03846C41.2483 9.03846 42.6818 9.56806 43.7692 10.1118C43.7692 9.92819 43.7833 9.78695 43.5997 9.60336C43.1266 7.07541 40.8529 5.19005 38.2332 5.2536ZM16.6538 5.47957C14.1541 5.41601 11.8733 7.23077 11.4002 9.60336C11.2166 9.78695 11.2308 9.92819 11.2308 10.1118C12.3182 9.56806 13.9282 9.03846 15.9195 9.03846C18.631 9.03846 20.6435 10.3024 21.9074 11.75C22.4512 8.85487 20.6223 6.13626 17.7272 5.59255C17.367 5.50075 17.014 5.48663 16.6538 5.47957ZM15.9195 10.8462C11.4002 10.8462 10.3128 13.3529 9.59255 15.7043C8.32857 19.6798 4.90385 29.0925 4.90385 29.0925C4.90385 29.0925 5.08743 28.916 5.12981 28.8666C4.41662 30.2365 4 31.797 4 33.4423C4 38.9148 8.46981 43.3846 13.9423 43.3846C19.4148 43.3846 23.8846 38.9148 23.8846 33.4423C23.8846 28.3158 19.9585 24.0649 14.9591 23.5565C20.8059 23.8672 22.6912 26.6988 23.8846 28.9231C23.8846 30.9143 25.5087 32.5384 27.5 32.5384C29.4913 32.5384 31.1154 30.9143 31.1154 28.9231C32.3087 26.6988 34.1941 23.8672 40.0408 23.5565C35.0415 24.0649 31.1154 28.3158 31.1154 33.4423C31.1154 38.9148 35.5852 43.3846 41.0577 43.3846C46.5302 43.3846 51 38.9148 51 33.4423C51 31.797 50.5834 30.2365 49.8702 28.8666C49.9125 28.916 50.0961 29.0925 50.0961 29.0925C50.0961 29.0925 46.6714 19.6798 45.4074 15.7043C44.6872 13.5365 43.5997 10.8462 39.0805 10.8462C34.2012 10.8462 32.3935 16.7918 30.9459 15.7043C30.0421 14.8005 28.764 14.4615 27.5 14.4615C26.236 14.4615 24.9579 14.8005 24.0541 15.7043C22.6065 16.7918 20.7988 10.8462 15.9195 10.8462ZM13.9423 27.1154C17.4588 27.1154 20.2692 29.9258 20.2692 33.4423C20.2692 36.9588 17.4588 39.7692 13.9423 39.7692C10.4258 39.7692 7.61538 36.9588 7.61538 33.4423C7.61538 29.9258 10.4258 27.1154 13.9423 27.1154ZM41.0577 27.1154C44.5742 27.1154 47.3846 29.9258 47.3846 33.4423C47.3846 36.9588 44.5742 39.7692 41.0577 39.7692C37.5412 39.7692 34.7308 36.9588 34.7308 33.4423C34.7308 29.9258 37.5412 27.1154 41.0577 27.1154Z" fill="#008F00"/>
<line x1="54" y1="39.5" x2="294" y2="39.487" stroke="#961D91"/>
</g>
<defs>
<filter id="filter0_d_3_17" x="0" y="0" width="298" height="55" filterUnits="userSpaceOnUse" color-interpolation-filters="sRGB">
<feFlood flood-opacity="0" result="BackgroundImageFix"/>
<feColorMatrix in="SourceAlpha" type="matrix" values="0 0 0 0 0 0 0 0 0 0 0 0 0 0 0 0 0 0 127 0" result="hardAlpha"/>
<feOffset dy="4"/>
<feGaussianBlur stdDeviation="2"/>
<feComposite in2="hardAlpha" operator="out"/>
<feColorMatrix type="matrix" values="0 0 0 0 0 0 0 0 0 0 0 0 0 0 0 0 0 0 0.25 0"/>
<feBlend mode="normal" in2="BackgroundImageFix" result="effect1_dropShadow_3_17"/>
<feBlend mode="normal" in="SourceGraphic" in2="effect1_dropShadow_3_17" result="shape"/>
</filter>
</defs>
</svg>
